<svg width="151" height="24" viewBox="0 0 151 24" fill="none" xmlns="http://www.w3.org/2000/svg">
<path d="M15.49 0.199998V6.082H6.956V9.958H15.32V15.84H6.956V24H0.87V0.199998H15.49ZM37.4057 24H30.8777L26.7297 16.316H24.5537V24H18.4677V0.199998H27.9877C30.413 0.199998 32.4417 0.981998 34.0737 2.546C35.7283 4.06467 36.5557 6.02533 36.5557 8.428C36.5557 9.83333 36.193 11.1367 35.4677 12.338C34.7423 13.5393 33.7563 14.4913 32.5097 15.194L37.4057 24ZM27.9197 5.81H24.5537V11.148H27.9197C28.6677 11.1707 29.2797 10.9327 29.7557 10.434C30.2317 9.93533 30.4697 9.28933 30.4697 8.496C30.4697 7.70267 30.2317 7.05667 29.7557 6.558C29.2797 6.05933 28.6677 5.81 27.9197 5.81ZM45.6376 14.786V18.288H54.8516V24H39.5516V0.199998H54.6816V5.878H45.6376V9.176H53.8316V14.786H45.6376ZM63.833 14.786V18.288H73.047V24H57.747V0.199998H72.877V5.878H63.833V9.176H72.027V14.786H63.833ZM82.0283 0.199998V18.118H90.2223V24H75.9423V0.199998H82.0283ZM92.4442 0.199998H101.692C104.095 0.199998 106.112 0.981998 107.744 2.546C109.376 4.11 110.192 6.10467 110.192 8.53C110.192 10.9553 109.376 12.95 107.744 14.514C106.112 16.078 104.095 16.86 101.692 16.86H98.5302V24H92.4442V0.199998ZM98.5302 11.08H101.692C102.372 11.08 102.939 10.842 103.392 10.366C103.868 9.89 104.106 9.278 104.106 8.53C104.106 7.782 103.868 7.18133 103.392 6.728C102.939 6.252 102.372 6.014 101.692 6.014H98.5302V11.08ZM131.421 24H124.859L123.839 20.566H115.917L114.897 24H108.301L116.155 0.199998H123.567L131.421 24ZM119.861 7.238L117.481 15.33H122.275L119.861 7.238ZM143.527 0.199998H150.361L142.337 14.854V24H136.251V14.922L128.227 0.199998H135.061L139.277 9.006L143.527 0.199998Z" fill="#4F46BA"/>
</svg>
