<svg width="82" height="92" viewBox="0 0 82 92" fill="none" xmlns="http://www.w3.org/2000/svg">
<path d="M15.54 23.49L6.93 8.4H2.22V30H6.42V14.67L15.24 30H19.74V8.4H15.54V23.49Z" fill="#333536"/>
<path d="M16.98 50.64C18.27 49.59 18.9 47.79 18.9 45.24C18.9 42.93 18.27 41.19 16.98 40.08C15.69 38.97 13.95 38.4 11.79 38.4H2.4V60H6.87V52.23H11.46C13.83 52.23 15.69 51.72 16.98 50.64ZM13.56 42.87C14.16 43.35 14.43 44.16 14.43 45.27C14.43 46.41 14.16 47.22 13.56 47.73C12.96 48.24 12.15 48.51 11.07 48.51H6.87V42.15H11.07C12.15 42.15 12.96 42.39 13.56 42.87Z" fill="#333536"/>
<path d="M15.54 83.49L6.93 68.4H2.22V90H6.42V74.67L15.24 90H19.74V68.4H15.54V83.49Z" fill="#333536"/>
<path d="M33.72 38.4H29.25V60H33.72V50.37H42.15V60H46.65V38.4H42.15V46.65H33.72V38.4Z" fill="#333536"/>
<path d="M33.84 76.83V72.24H45.24V68.4H29.43V90H45.78V86.13H33.84V80.58H44.31V76.83H33.84Z" fill="#333536"/>
<path d="M74.9 58.08C77.09 56.01 78.17 53.07 78.17 49.17C78.17 45.21 77.09 42.24 74.9 40.26C73.28 38.58 70.94 37.74 67.85 37.74C64.76 37.74 62.39 38.58 60.77 40.26C58.58 42.24 57.47 45.21 57.47 49.17C57.47 53.07 58.58 56.01 60.77 58.08C62.39 59.76 64.76 60.6 67.85 60.6C70.94 60.6 73.28 59.76 74.9 58.08ZM72.11 54.81C71.03 56.13 69.62 56.79 67.85 56.79C66.05 56.79 64.64 56.13 63.56 54.81C62.48 53.49 61.97 51.6 61.97 49.17C61.97 46.74 62.48 44.88 63.56 43.56C64.64 42.24 66.05 41.58 67.85 41.58C69.62 41.58 71.03 42.24 72.11 43.56C73.13 44.88 73.67 46.77 73.67 49.17C73.67 51.6 73.13 53.49 72.11 54.81Z" fill="#333536"/>
<path d="M33.84 16.83V12.24H45.24V8.4H29.43V30H45.78V26.13H33.84V20.58H44.31V16.83H33.84Z" fill="#333536"/>
<path d="M61.7 24.21L61.1 20.76L58.22 8.4H53.45L59.57 30H63.74L66.35 17.37L67.13 13.2L67.88 17.37L70.49 30H74.81L80.87 8.4H76.28L73.4 20.91L72.74 24.21L72.08 20.76L69.53 8.4H64.76L62.33 20.85L61.7 24.21Z" fill="#333536"/>
<rect x="56" y="68" width="23" height="23" fill="#0069E4"/>
</svg>
